<?xml version="1.0" standalone="no"?>
 <!DOCTYPE svg PUBLIC "-//W3C//DTD SVG 1.1//EN" 
 "http://www.w3.org/Graphics/SVG/1.1/DTD/svg11.dtd"> 
<svg
  xmlns:svg="http://www.w3.org/2000/svg"
  xmlns="http://www.w3.org/2000/svg"
  xmlns:xlink="http://www.w3.org/1999/xlink"
  version="1.1"
  width="297.0022mm" height="210.0072mm" viewBox="0.0000 0.0000 297.0022 210.0072">
<title>SVG Image created as braid-hw.svg date 2024/07/23 18:00:50 </title>
  <desc>Image generated by Eeschema-SVG </desc>
<g style="fill:#000000; fill-opacity:1.0000;stroke:#000000; stroke-opacity:1.0000;
stroke-linecap:round; stroke-linejoin:round;"
 transform="translate(0 0) scale(1 1)">
</g>
<g style="fill:none; 
stroke:#840000; stroke-width:0.1524; stroke-opacity:1; 
stroke-linecap:round; stroke-linejoin:round;">
<rect x="162.560000" y="93.980000" width="27.940000" height="16.510000" rx="0.000000" />
<rect x="113.030000" y="93.980000" width="27.940000" height="16.510000" rx="0.000000" />
<rect x="69.850000" y="68.580000" width="24.130000" height="20.320000" rx="0.000000" />
<rect x="209.550000" y="93.980000" width="27.940000" height="16.510000" rx="0.000000" />
<rect x="162.560000" y="93.980000" width="27.940000" height="16.510000" rx="0.000000" />
</g>
<g style="fill:none; 
stroke:#006464; stroke-width:0.1524; stroke-opacity:1; 
stroke-linecap:round; stroke-linejoin:round;">
<g transform="rotate(-90.000000 168.9100 95.4405)">
<text x="168.9100" y="96.0755"
textLength="3.9527" font-size="1.6933" lengthAdjust="spacingAndGlyphs"
text-anchor="end" opacity="0" stroke-opacity="0">SGD</text>
</g>
<g class="stroked-text"><desc>SGD</desc>
<path d="M169.4291 99.0482
L169.4895 98.8668
" />
<path d="M169.4895 98.8668
L169.4895 98.5644
" />
<path d="M169.4895 98.5644
L169.4291 98.4435
" />
<path d="M169.4291 98.4435
L169.3686 98.3830
" />
<path d="M169.3686 98.3830
L169.2476 98.3225
" />
<path d="M169.2476 98.3225
L169.1267 98.3225
" />
<path d="M169.1267 98.3225
L169.0057 98.3830
" />
<path d="M169.0057 98.3830
L168.9452 98.4435
" />
<path d="M168.9452 98.4435
L168.8848 98.5644
" />
<path d="M168.8848 98.5644
L168.8243 98.8063
" />
<path d="M168.8243 98.8063
L168.7638 98.9273
" />
<path d="M168.7638 98.9273
L168.7033 98.9878
" />
<path d="M168.7033 98.9878
L168.5824 99.0482
" />
<path d="M168.5824 99.0482
L168.4614 99.0482
" />
<path d="M168.4614 99.0482
L168.3405 98.9878
" />
<path d="M168.3405 98.9878
L168.2800 98.9273
" />
<path d="M168.2800 98.9273
L168.2195 98.8063
" />
<path d="M168.2195 98.8063
L168.2195 98.5040
" />
<path d="M168.2195 98.5040
L168.2800 98.3225
" />
<path d="M168.2800 97.1130
L168.2195 97.2340
" />
<path d="M168.2195 97.2340
L168.2195 97.4154
" />
<path d="M168.2195 97.4154
L168.2800 97.5968
" />
<path d="M168.2800 97.5968
L168.4010 97.7178
" />
<path d="M168.4010 97.7178
L168.5219 97.7783
" />
<path d="M168.5219 97.7783
L168.7638 97.8387
" />
<path d="M168.7638 97.8387
L168.9452 97.8387
" />
<path d="M168.9452 97.8387
L169.1871 97.7783
" />
<path d="M169.1871 97.7783
L169.3081 97.7178
" />
<path d="M169.3081 97.7178
L169.4291 97.5968
" />
<path d="M169.4291 97.5968
L169.4895 97.4154
" />
<path d="M169.4895 97.4154
L169.4895 97.2945
" />
<path d="M169.4895 97.2945
L169.4291 97.1130
" />
<path d="M169.4291 97.1130
L169.3686 97.0526
" />
<path d="M169.3686 97.0526
L168.9452 97.0526
" />
<path d="M168.9452 97.0526
L168.9452 97.2945
" />
<path d="M169.4895 96.5083
L168.2195 96.5083
" />
<path d="M168.2195 96.5083
L168.2195 96.2059
" />
<path d="M168.2195 96.2059
L168.2800 96.0245
" />
<path d="M168.2800 96.0245
L168.4010 95.9035
" />
<path d="M168.4010 95.9035
L168.5219 95.8430
" />
<path d="M168.5219 95.8430
L168.7638 95.7826
" />
<path d="M168.7638 95.7826
L168.9452 95.7826
" />
<path d="M168.9452 95.7826
L169.1871 95.8430
" />
<path d="M169.1871 95.8430
L169.3081 95.9035
" />
<path d="M169.3081 95.9035
L169.4291 96.0245
" />
<path d="M169.4291 96.0245
L169.4895 96.2059
" />
<path d="M169.4895 96.2059
L169.4895 96.5083
" />
</g><path style="fill:none; 
stroke:#006464; stroke-width:0.1524; stroke-opacity:1; 
stroke-linecap:round; stroke-linejoin:round;fill:none"
d="M 168.9100,95.2500
169.5450,94.6150
169.5450,93.9800
168.2750,93.9800
168.2750,94.6150
Z" /> 
<g transform="rotate(-90.000000 176.5300 95.4405)">
<text x="176.5300" y="96.0755"
textLength="3.7713" font-size="1.6933" lengthAdjust="spacingAndGlyphs"
text-anchor="end" opacity="0" stroke-opacity="0">SDA</text>
</g>
<g class="stroked-text"><desc>SDA</desc>
<path d="M177.0491 98.8668
L177.1095 98.6854
" />
<path d="M177.1095 98.6854
L177.1095 98.3830
" />
<path d="M177.1095 98.3830
L177.0491 98.2621
" />
<path d="M177.0491 98.2621
L176.9886 98.2016
" />
<path d="M176.9886 98.2016
L176.8676 98.1411
" />
<path d="M176.8676 98.1411
L176.7467 98.1411
" />
<path d="M176.7467 98.1411
L176.6257 98.2016
" />
<path d="M176.6257 98.2016
L176.5652 98.2621
" />
<path d="M176.5652 98.2621
L176.5048 98.3830
" />
<path d="M176.5048 98.3830
L176.4443 98.6249
" />
<path d="M176.4443 98.6249
L176.3838 98.7459
" />
<path d="M176.3838 98.7459
L176.3233 98.8064
" />
<path d="M176.3233 98.8064
L176.2024 98.8668
" />
<path d="M176.2024 98.8668
L176.0814 98.8668
" />
<path d="M176.0814 98.8668
L175.9605 98.8064
" />
<path d="M175.9605 98.8064
L175.9000 98.7459
" />
<path d="M175.9000 98.7459
L175.8395 98.6249
" />
<path d="M175.8395 98.6249
L175.8395 98.3226
" />
<path d="M175.8395 98.3226
L175.9000 98.1411
" />
<path d="M177.1095 97.5969
L175.8395 97.5969
" />
<path d="M175.8395 97.5969
L175.8395 97.2945
" />
<path d="M175.8395 97.2945
L175.9000 97.1131
" />
<path d="M175.9000 97.1131
L176.0210 96.9921
" />
<path d="M176.0210 96.9921
L176.1419 96.9316
" />
<path d="M176.1419 96.9316
L176.3838 96.8712
" />
<path d="M176.3838 96.8712
L176.5652 96.8712
" />
<path d="M176.5652 96.8712
L176.8071 96.9316
" />
<path d="M176.8071 96.9316
L176.9281 96.9921
" />
<path d="M176.9281 96.9921
L177.0491 97.1131
" />
<path d="M177.0491 97.1131
L177.1095 97.2945
" />
<path d="M177.1095 97.2945
L177.1095 97.5969
" />
<path d="M176.7467 96.3873
L176.7467 95.7826
" />
<path d="M177.1095 96.5083
L175.8395 96.0850
" />
<path d="M175.8395 96.0850
L177.1095 95.6616
" />
</g><path style="fill:none; 
stroke:#006464; stroke-width:0.1524; stroke-opacity:1; 
stroke-linecap:round; stroke-linejoin:round;fill:none"
d="M 176.5300,95.2500
177.1650,94.6150
177.1650,93.9800
175.8950,93.9800
175.8950,94.6150
Z" /> 
<g transform="rotate(-90.000000 184.1500 95.4405)">
<text x="184.1500" y="96.0755"
textLength="3.9527" font-size="1.6933" lengthAdjust="spacingAndGlyphs"
text-anchor="end" opacity="0" stroke-opacity="0">SDB</text>
</g>
<g class="stroked-text"><desc>SDB</desc>
<path d="M184.6691 99.0482
L184.7295 98.8668
" />
<path d="M184.7295 98.8668
L184.7295 98.5644
" />
<path d="M184.7295 98.5644
L184.6691 98.4435
" />
<path d="M184.6691 98.4435
L184.6086 98.3830
" />
<path d="M184.6086 98.3830
L184.4876 98.3225
" />
<path d="M184.4876 98.3225
L184.3667 98.3225
" />
<path d="M184.3667 98.3225
L184.2457 98.3830
" />
<path d="M184.2457 98.3830
L184.1852 98.4435
" />
<path d="M184.1852 98.4435
L184.1248 98.5644
" />
<path d="M184.1248 98.5644
L184.0643 98.8063
" />
<path d="M184.0643 98.8063
L184.0038 98.9273
" />
<path d="M184.0038 98.9273
L183.9433 98.9878
" />
<path d="M183.9433 98.9878
L183.8224 99.0482
" />
<path d="M183.8224 99.0482
L183.7014 99.0482
" />
<path d="M183.7014 99.0482
L183.5805 98.9878
" />
<path d="M183.5805 98.9878
L183.5200 98.9273
" />
<path d="M183.5200 98.9273
L183.4595 98.8063
" />
<path d="M183.4595 98.8063
L183.4595 98.5040
" />
<path d="M183.4595 98.5040
L183.5200 98.3225
" />
<path d="M184.7295 97.7783
L183.4595 97.7783
" />
<path d="M183.4595 97.7783
L183.4595 97.4759
" />
<path d="M183.4595 97.4759
L183.5200 97.2945
" />
<path d="M183.5200 97.2945
L183.6410 97.1735
" />
<path d="M183.6410 97.1735
L183.7619 97.1130
" />
<path d="M183.7619 97.1130
L184.0038 97.0526
" />
<path d="M184.0038 97.0526
L184.1852 97.0526
" />
<path d="M184.1852 97.0526
L184.4271 97.1130
" />
<path d="M184.4271 97.1130
L184.5481 97.1735
" />
<path d="M184.5481 97.1735
L184.6691 97.2945
" />
<path d="M184.6691 97.2945
L184.7295 97.4759
" />
<path d="M184.7295 97.4759
L184.7295 97.7783
" />
<path d="M184.0643 96.0849
L184.1248 95.9035
" />
<path d="M184.1248 95.9035
L184.1852 95.8430
" />
<path d="M184.1852 95.8430
L184.3062 95.7826
" />
<path d="M184.3062 95.7826
L184.4876 95.7826
" />
<path d="M184.4876 95.7826
L184.6086 95.8430
" />
<path d="M184.6086 95.8430
L184.6691 95.9035
" />
<path d="M184.6691 95.9035
L184.7295 96.0245
" />
<path d="M184.7295 96.0245
L184.7295 96.5083
" />
<path d="M184.7295 96.5083
L183.4595 96.5083
" />
<path d="M183.4595 96.5083
L183.4595 96.0849
" />
<path d="M183.4595 96.0849
L183.5200 95.9640
" />
<path d="M183.5200 95.9640
L183.5805 95.9035
" />
<path d="M183.5805 95.9035
L183.7014 95.8430
" />
<path d="M183.7014 95.8430
L183.8224 95.8430
" />
<path d="M183.8224 95.8430
L183.9433 95.9035
" />
<path d="M183.9433 95.9035
L184.0038 95.9640
" />
<path d="M184.0038 95.9640
L184.0643 96.0849
" />
<path d="M184.0643 96.0849
L184.0643 96.5083
" />
</g><path style="fill:none; 
stroke:#006464; stroke-width:0.1524; stroke-opacity:1; 
stroke-linecap:round; stroke-linejoin:round;fill:none"
d="M 184.1500,95.2500
184.7850,94.6150
184.7850,93.9800
183.5150,93.9800
183.5150,94.6150
Z" /> 
<text x="163.5760" y="109.4740"
textLength="8.8512" font-size="1.6933" lengthAdjust="spacingAndGlyphs"
text-anchor="start" opacity="0" stroke-opacity="0">Sensors1</text>
<g class="stroked-text"><desc>Sensors1</desc>
<path d="M163.9181 109.2501
L164.0995 109.3105
" />
<path d="M164.0995 109.3105
L164.4019 109.3105
" />
<path d="M164.4019 109.3105
L164.5228 109.2501
" />
<path d="M164.5228 109.2501
L164.5833 109.1896
" />
<path d="M164.5833 109.1896
L164.6438 109.0686
" />
<path d="M164.6438 109.0686
L164.6438 108.9477
" />
<path d="M164.6438 108.9477
L164.5833 108.8267
" />
<path d="M164.5833 108.8267
L164.5228 108.7662
" />
<path d="M164.5228 108.7662
L164.4019 108.7058
" />
<path d="M164.4019 108.7058
L164.1600 108.6453
" />
<path d="M164.1600 108.6453
L164.0390 108.5848
" />
<path d="M164.0390 108.5848
L163.9785 108.5243
" />
<path d="M163.9785 108.5243
L163.9181 108.4034
" />
<path d="M163.9181 108.4034
L163.9181 108.2824
" />
<path d="M163.9181 108.2824
L163.9785 108.1615
" />
<path d="M163.9785 108.1615
L164.0390 108.1010
" />
<path d="M164.0390 108.1010
L164.1600 108.0405
" />
<path d="M164.1600 108.0405
L164.4623 108.0405
" />
<path d="M164.4623 108.0405
L164.6438 108.1010
" />
<path d="M165.6718 109.2501
L165.5509 109.3105
" />
<path d="M165.5509 109.3105
L165.3090 109.3105
" />
<path d="M165.3090 109.3105
L165.1880 109.2501
" />
<path d="M165.1880 109.2501
L165.1276 109.1291
" />
<path d="M165.1276 109.1291
L165.1276 108.6453
" />
<path d="M165.1276 108.6453
L165.1880 108.5243
" />
<path d="M165.1880 108.5243
L165.3090 108.4639
" />
<path d="M165.3090 108.4639
L165.5509 108.4639
" />
<path d="M165.5509 108.4639
L165.6718 108.5243
" />
<path d="M165.6718 108.5243
L165.7323 108.6453
" />
<path d="M165.7323 108.6453
L165.7323 108.7662
" />
<path d="M165.7323 108.7662
L165.1276 108.8872
" />
<path d="M166.2766 108.4639
L166.2766 109.3105
" />
<path d="M166.2766 108.5848
L166.3371 108.5243
" />
<path d="M166.3371 108.5243
L166.4581 108.4639
" />
<path d="M166.4581 108.4639
L166.6395 108.4639
" />
<path d="M166.6395 108.4639
L166.7604 108.5243
" />
<path d="M166.7604 108.5243
L166.8209 108.6453
" />
<path d="M166.8209 108.6453
L166.8209 109.3105
" />
<path d="M167.3652 109.2501
L167.4861 109.3105
" />
<path d="M167.4861 109.3105
L167.7280 109.3105
" />
<path d="M167.7280 109.3105
L167.8490 109.2501
" />
<path d="M167.8490 109.2501
L167.9094 109.1291
" />
<path d="M167.9094 109.1291
L167.9094 109.0686
" />
<path d="M167.9094 109.0686
L167.8490 108.9477
" />
<path d="M167.8490 108.9477
L167.7280 108.8872
" />
<path d="M167.7280 108.8872
L167.5466 108.8872
" />
<path d="M167.5466 108.8872
L167.4256 108.8267
" />
<path d="M167.4256 108.8267
L167.3652 108.7058
" />
<path d="M167.3652 108.7058
L167.3652 108.6453
" />
<path d="M167.3652 108.6453
L167.4256 108.5243
" />
<path d="M167.4256 108.5243
L167.5466 108.4639
" />
<path d="M167.5466 108.4639
L167.7280 108.4639
" />
<path d="M167.7280 108.4639
L167.8490 108.5243
" />
<path d="M168.6352 109.3105
L168.5142 109.2501
" />
<path d="M168.5142 109.2501
L168.4537 109.1896
" />
<path d="M168.4537 109.1896
L168.3933 109.0686
" />
<path d="M168.3933 109.0686
L168.3933 108.7058
" />
<path d="M168.3933 108.7058
L168.4537 108.5848
" />
<path d="M168.4537 108.5848
L168.5142 108.5243
" />
<path d="M168.5142 108.5243
L168.6352 108.4639
" />
<path d="M168.6352 108.4639
L168.8166 108.4639
" />
<path d="M168.8166 108.4639
L168.9375 108.5243
" />
<path d="M168.9375 108.5243
L168.9980 108.5848
" />
<path d="M168.9980 108.5848
L169.0585 108.7058
" />
<path d="M169.0585 108.7058
L169.0585 109.0686
" />
<path d="M169.0585 109.0686
L168.9980 109.1896
" />
<path d="M168.9980 109.1896
L168.9375 109.2501
" />
<path d="M168.9375 109.2501
L168.8166 109.3105
" />
<path d="M168.8166 109.3105
L168.6352 109.3105
" />
<path d="M169.6027 109.3105
L169.6027 108.4639
" />
<path d="M169.6027 108.7058
L169.6632 108.5848
" />
<path d="M169.6632 108.5848
L169.7237 108.5243
" />
<path d="M169.7237 108.5243
L169.8446 108.4639
" />
<path d="M169.8446 108.4639
L169.9656 108.4639
" />
<path d="M170.3285 109.2501
L170.4494 109.3105
" />
<path d="M170.4494 109.3105
L170.6913 109.3105
" />
<path d="M170.6913 109.3105
L170.8123 109.2501
" />
<path d="M170.8123 109.2501
L170.8727 109.1291
" />
<path d="M170.8727 109.1291
L170.8727 109.0686
" />
<path d="M170.8727 109.0686
L170.8123 108.9477
" />
<path d="M170.8123 108.9477
L170.6913 108.8872
" />
<path d="M170.6913 108.8872
L170.5099 108.8872
" />
<path d="M170.5099 108.8872
L170.3889 108.8267
" />
<path d="M170.3889 108.8267
L170.3285 108.7058
" />
<path d="M170.3285 108.7058
L170.3285 108.6453
" />
<path d="M170.3285 108.6453
L170.3889 108.5243
" />
<path d="M170.3889 108.5243
L170.5099 108.4639
" />
<path d="M170.5099 108.4639
L170.6913 108.4639
" />
<path d="M170.6913 108.4639
L170.8123 108.5243
" />
<path d="M172.0823 109.3105
L171.3566 109.3105
" />
<path d="M171.7194 109.3105
L171.7194 108.0405
" />
<path d="M171.7194 108.0405
L171.5985 108.2220
" />
<path d="M171.5985 108.2220
L171.4775 108.3429
" />
<path d="M171.4775 108.3429
L171.3566 108.4034
" />
</g></g>
<g style="fill:none; 
stroke:#840000; stroke-width:0.1524; stroke-opacity:1; 
stroke-linecap:round; stroke-linejoin:round;">
<rect x="113.030000" y="93.980000" width="27.940000" height="16.510000" rx="0.000000" />
</g>
<g style="fill:none; 
stroke:#006464; stroke-width:0.1524; stroke-opacity:1; 
stroke-linecap:round; stroke-linejoin:round;">
<g transform="rotate(-90.000000 119.3800 95.4405)">
<text x="119.3800" y="96.0755"
textLength="3.9527" font-size="1.6933" lengthAdjust="spacingAndGlyphs"
text-anchor="end" opacity="0" stroke-opacity="0">SGD</text>
</g>
<g class="stroked-text"><desc>SGD</desc>
<path d="M119.8991 99.0482
L119.9595 98.8668
" />
<path d="M119.9595 98.8668
L119.9595 98.5644
" />
<path d="M119.9595 98.5644
L119.8991 98.4435
" />
<path d="M119.8991 98.4435
L119.8386 98.3830
" />
<path d="M119.8386 98.3830
L119.7176 98.3225
" />
<path d="M119.7176 98.3225
L119.5967 98.3225
" />
<path d="M119.5967 98.3225
L119.4757 98.3830
" />
<path d="M119.4757 98.3830
L119.4152 98.4435
" />
<path d="M119.4152 98.4435
L119.3548 98.5644
" />
<path d="M119.3548 98.5644
L119.2943 98.8063
" />
<path d="M119.2943 98.8063
L119.2338 98.9273
" />
<path d="M119.2338 98.9273
L119.1733 98.9878
" />
<path d="M119.1733 98.9878
L119.0524 99.0482
" />
<path d="M119.0524 99.0482
L118.9314 99.0482
" />
<path d="M118.9314 99.0482
L118.8105 98.9878
" />
<path d="M118.8105 98.9878
L118.7500 98.9273
" />
<path d="M118.7500 98.9273
L118.6895 98.8063
" />
<path d="M118.6895 98.8063
L118.6895 98.5040
" />
<path d="M118.6895 98.5040
L118.7500 98.3225
" />
<path d="M118.7500 97.1130
L118.6895 97.2340
" />
<path d="M118.6895 97.2340
L118.6895 97.4154
" />
<path d="M118.6895 97.4154
L118.7500 97.5968
" />
<path d="M118.7500 97.5968
L118.8710 97.7178
" />
<path d="M118.8710 97.7178
L118.9919 97.7783
" />
<path d="M118.9919 97.7783
L119.2338 97.8387
" />
<path d="M119.2338 97.8387
L119.4152 97.8387
" />
<path d="M119.4152 97.8387
L119.6571 97.7783
" />
<path d="M119.6571 97.7783
L119.7781 97.7178
" />
<path d="M119.7781 97.7178
L119.8991 97.5968
" />
<path d="M119.8991 97.5968
L119.9595 97.4154
" />
<path d="M119.9595 97.4154
L119.9595 97.2945
" />
<path d="M119.9595 97.2945
L119.8991 97.1130
" />
<path d="M119.8991 97.1130
L119.8386 97.0526
" />
<path d="M119.8386 97.0526
L119.4152 97.0526
" />
<path d="M119.4152 97.0526
L119.4152 97.2945
" />
<path d="M119.9595 96.5083
L118.6895 96.5083
" />
<path d="M118.6895 96.5083
L118.6895 96.2059
" />
<path d="M118.6895 96.2059
L118.7500 96.0245
" />
<path d="M118.7500 96.0245
L118.8710 95.9035
" />
<path d="M118.8710 95.9035
L118.9919 95.8430
" />
<path d="M118.9919 95.8430
L119.2338 95.7826
" />
<path d="M119.2338 95.7826
L119.4152 95.7826
" />
<path d="M119.4152 95.7826
L119.6571 95.8430
" />
<path d="M119.6571 95.8430
L119.7781 95.9035
" />
<path d="M119.7781 95.9035
L119.8991 96.0245
" />
<path d="M119.8991 96.0245
L119.9595 96.2059
" />
<path d="M119.9595 96.2059
L119.9595 96.5083
" />
</g><path style="fill:none; 
stroke:#006464; stroke-width:0.1524; stroke-opacity:1; 
stroke-linecap:round; stroke-linejoin:round;fill:none"
d="M 119.3800,95.2500
120.0150,94.6150
120.0150,93.9800
118.7450,93.9800
118.7450,94.6150
Z" /> 
<g transform="rotate(-90.000000 127.0000 95.4405)">
<text x="127.0000" y="96.0755"
textLength="3.7713" font-size="1.6933" lengthAdjust="spacingAndGlyphs"
text-anchor="end" opacity="0" stroke-opacity="0">SDA</text>
</g>
<g class="stroked-text"><desc>SDA</desc>
<path d="M127.5191 98.8668
L127.5795 98.6854
" />
<path d="M127.5795 98.6854
L127.5795 98.3830
" />
<path d="M127.5795 98.3830
L127.5191 98.2621
" />
<path d="M127.5191 98.2621
L127.4586 98.2016
" />
<path d="M127.4586 98.2016
L127.3376 98.1411
" />
<path d="M127.3376 98.1411
L127.2167 98.1411
" />
<path d="M127.2167 98.1411
L127.0957 98.2016
" />
<path d="M127.0957 98.2016
L127.0352 98.2621
" />
<path d="M127.0352 98.2621
L126.9748 98.3830
" />
<path d="M126.9748 98.3830
L126.9143 98.6249
" />
<path d="M126.9143 98.6249
L126.8538 98.7459
" />
<path d="M126.8538 98.7459
L126.7933 98.8064
" />
<path d="M126.7933 98.8064
L126.6724 98.8668
" />
<path d="M126.6724 98.8668
L126.5514 98.8668
" />
<path d="M126.5514 98.8668
L126.4305 98.8064
" />
<path d="M126.4305 98.8064
L126.3700 98.7459
" />
<path d="M126.3700 98.7459
L126.3095 98.6249
" />
<path d="M126.3095 98.6249
L126.3095 98.3226
" />
<path d="M126.3095 98.3226
L126.3700 98.1411
" />
<path d="M127.5795 97.5969
L126.3095 97.5969
" />
<path d="M126.3095 97.5969
L126.3095 97.2945
" />
<path d="M126.3095 97.2945
L126.3700 97.1131
" />
<path d="M126.3700 97.1131
L126.4910 96.9921
" />
<path d="M126.4910 96.9921
L126.6119 96.9316
" />
<path d="M126.6119 96.9316
L126.8538 96.8712
" />
<path d="M126.8538 96.8712
L127.0352 96.8712
" />
<path d="M127.0352 96.8712
L127.2771 96.9316
" />
<path d="M127.2771 96.9316
L127.3981 96.9921
" />
<path d="M127.3981 96.9921
L127.5191 97.1131
" />
<path d="M127.5191 97.1131
L127.5795 97.2945
" />
<path d="M127.5795 97.2945
L127.5795 97.5969
" />
<path d="M127.2167 96.3873
L127.2167 95.7826
" />
<path d="M127.5795 96.5083
L126.3095 96.0850
" />
<path d="M126.3095 96.0850
L127.5795 95.6616
" />
</g><path style="fill:none; 
stroke:#006464; stroke-width:0.1524; stroke-opacity:1; 
stroke-linecap:round; stroke-linejoin:round;fill:none"
d="M 127.0000,95.2500
127.6350,94.6150
127.6350,93.9800
126.3650,93.9800
126.3650,94.6150
Z" /> 
<g transform="rotate(-90.000000 134.6200 95.4405)">
<text x="134.6200" y="96.0755"
textLength="3.9527" font-size="1.6933" lengthAdjust="spacingAndGlyphs"
text-anchor="end" opacity="0" stroke-opacity="0">SDB</text>
</g>
<g class="stroked-text"><desc>SDB</desc>
<path d="M135.1391 99.0482
L135.1995 98.8668
" />
<path d="M135.1995 98.8668
L135.1995 98.5644
" />
<path d="M135.1995 98.5644
L135.1391 98.4435
" />
<path d="M135.1391 98.4435
L135.0786 98.3830
" />
<path d="M135.0786 98.3830
L134.9576 98.3225
" />
<path d="M134.9576 98.3225
L134.8367 98.3225
" />
<path d="M134.8367 98.3225
L134.7157 98.3830
" />
<path d="M134.7157 98.3830
L134.6552 98.4435
" />
<path d="M134.6552 98.4435
L134.5948 98.5644
" />
<path d="M134.5948 98.5644
L134.5343 98.8063
" />
<path d="M134.5343 98.8063
L134.4738 98.9273
" />
<path d="M134.4738 98.9273
L134.4133 98.9878
" />
<path d="M134.4133 98.9878
L134.2924 99.0482
" />
<path d="M134.2924 99.0482
L134.1714 99.0482
" />
<path d="M134.1714 99.0482
L134.0505 98.9878
" />
<path d="M134.0505 98.9878
L133.9900 98.9273
" />
<path d="M133.9900 98.9273
L133.9295 98.8063
" />
<path d="M133.9295 98.8063
L133.9295 98.5040
" />
<path d="M133.9295 98.5040
L133.9900 98.3225
" />
<path d="M135.1995 97.7783
L133.9295 97.7783
" />
<path d="M133.9295 97.7783
L133.9295 97.4759
" />
<path d="M133.9295 97.4759
L133.9900 97.2945
" />
<path d="M133.9900 97.2945
L134.1110 97.1735
" />
<path d="M134.1110 97.1735
L134.2319 97.1130
" />
<path d="M134.2319 97.1130
L134.4738 97.0526
" />
<path d="M134.4738 97.0526
L134.6552 97.0526
" />
<path d="M134.6552 97.0526
L134.8971 97.1130
" />
<path d="M134.8971 97.1130
L135.0181 97.1735
" />
<path d="M135.0181 97.1735
L135.1391 97.2945
" />
<path d="M135.1391 97.2945
L135.1995 97.4759
" />
<path d="M135.1995 97.4759
L135.1995 97.7783
" />
<path d="M134.5343 96.0849
L134.5948 95.9035
" />
<path d="M134.5948 95.9035
L134.6552 95.8430
" />
<path d="M134.6552 95.8430
L134.7762 95.7826
" />
<path d="M134.7762 95.7826
L134.9576 95.7826
" />
<path d="M134.9576 95.7826
L135.0786 95.8430
" />
<path d="M135.0786 95.8430
L135.1391 95.9035
" />
<path d="M135.1391 95.9035
L135.1995 96.0245
" />
<path d="M135.1995 96.0245
L135.1995 96.5083
" />
<path d="M135.1995 96.5083
L133.9295 96.5083
" />
<path d="M133.9295 96.5083
L133.9295 96.0849
" />
<path d="M133.9295 96.0849
L133.9900 95.9640
" />
<path d="M133.9900 95.9640
L134.0505 95.9035
" />
<path d="M134.0505 95.9035
L134.1714 95.8430
" />
<path d="M134.1714 95.8430
L134.2924 95.8430
" />
<path d="M134.2924 95.8430
L134.4133 95.9035
" />
<path d="M134.4133 95.9035
L134.4738 95.9640
" />
<path d="M134.4738 95.9640
L134.5343 96.0849
" />
<path d="M134.5343 96.0849
L134.5343 96.5083
" />
</g><path style="fill:none; 
stroke:#006464; stroke-width:0.1524; stroke-opacity:1; 
stroke-linecap:round; stroke-linejoin:round;fill:none"
d="M 134.6200,95.2500
135.2550,94.6150
135.2550,93.9800
133.9850,93.9800
133.9850,94.6150
Z" /> 
<text x="113.7920" y="109.7280"
textLength="7.6417" font-size="1.6933" lengthAdjust="spacingAndGlyphs"
text-anchor="start" opacity="0" stroke-opacity="0">Sensors</text>
<g class="stroked-text"><desc>Sensors</desc>
<path d="M114.1341 109.5041
L114.3155 109.5645
" />
<path d="M114.3155 109.5645
L114.6179 109.5645
" />
<path d="M114.6179 109.5645
L114.7388 109.5041
" />
<path d="M114.7388 109.5041
L114.7993 109.4436
" />
<path d="M114.7993 109.4436
L114.8598 109.3226
" />
<path d="M114.8598 109.3226
L114.8598 109.2017
" />
<path d="M114.8598 109.2017
L114.7993 109.0807
" />
<path d="M114.7993 109.0807
L114.7388 109.0202
" />
<path d="M114.7388 109.0202
L114.6179 108.9598
" />
<path d="M114.6179 108.9598
L114.3760 108.8993
" />
<path d="M114.3760 108.8993
L114.2550 108.8388
" />
<path d="M114.2550 108.8388
L114.1945 108.7783
" />
<path d="M114.1945 108.7783
L114.1341 108.6574
" />
<path d="M114.1341 108.6574
L114.1341 108.5364
" />
<path d="M114.1341 108.5364
L114.1945 108.4155
" />
<path d="M114.1945 108.4155
L114.2550 108.3550
" />
<path d="M114.2550 108.3550
L114.3760 108.2945
" />
<path d="M114.3760 108.2945
L114.6783 108.2945
" />
<path d="M114.6783 108.2945
L114.8598 108.3550
" />
<path d="M115.8878 109.5041
L115.7669 109.5645
" />
<path d="M115.7669 109.5645
L115.5250 109.5645
" />
<path d="M115.5250 109.5645
L115.4040 109.5041
" />
<path d="M115.4040 109.5041
L115.3436 109.3831
" />
<path d="M115.3436 109.3831
L115.3436 108.8993
" />
<path d="M115.3436 108.8993
L115.4040 108.7783
" />
<path d="M115.4040 108.7783
L115.5250 108.7179
" />
<path d="M115.5250 108.7179
L115.7669 108.7179
" />
<path d="M115.7669 108.7179
L115.8878 108.7783
" />
<path d="M115.8878 108.7783
L115.9483 108.8993
" />
<path d="M115.9483 108.8993
L115.9483 109.0202
" />
<path d="M115.9483 109.0202
L115.3436 109.1412
" />
<path d="M116.4926 108.7179
L116.4926 109.5645
" />
<path d="M116.4926 108.8388
L116.5531 108.7783
" />
<path d="M116.5531 108.7783
L116.6741 108.7179
" />
<path d="M116.6741 108.7179
L116.8555 108.7179
" />
<path d="M116.8555 108.7179
L116.9764 108.7783
" />
<path d="M116.9764 108.7783
L117.0369 108.8993
" />
<path d="M117.0369 108.8993
L117.0369 109.5645
" />
<path d="M117.5812 109.5041
L117.7021 109.5645
" />
<path d="M117.7021 109.5645
L117.9440 109.5645
" />
<path d="M117.9440 109.5645
L118.0650 109.5041
" />
<path d="M118.0650 109.5041
L118.1254 109.3831
" />
<path d="M118.1254 109.3831
L118.1254 109.3226
" />
<path d="M118.1254 109.3226
L118.0650 109.2017
" />
<path d="M118.0650 109.2017
L117.9440 109.1412
" />
<path d="M117.9440 109.1412
L117.7626 109.1412
" />
<path d="M117.7626 109.1412
L117.6416 109.0807
" />
<path d="M117.6416 109.0807
L117.5812 108.9598
" />
<path d="M117.5812 108.9598
L117.5812 108.8993
" />
<path d="M117.5812 108.8993
L117.6416 108.7783
" />
<path d="M117.6416 108.7783
L117.7626 108.7179
" />
<path d="M117.7626 108.7179
L117.9440 108.7179
" />
<path d="M117.9440 108.7179
L118.0650 108.7783
" />
<path d="M118.8512 109.5645
L118.7302 109.5041
" />
<path d="M118.7302 109.5041
L118.6697 109.4436
" />
<path d="M118.6697 109.4436
L118.6093 109.3226
" />
<path d="M118.6093 109.3226
L118.6093 108.9598
" />
<path d="M118.6093 108.9598
L118.6697 108.8388
" />
<path d="M118.6697 108.8388
L118.7302 108.7783
" />
<path d="M118.7302 108.7783
L118.8512 108.7179
" />
<path d="M118.8512 108.7179
L119.0326 108.7179
" />
<path d="M119.0326 108.7179
L119.1535 108.7783
" />
<path d="M119.1535 108.7783
L119.2140 108.8388
" />
<path d="M119.2140 108.8388
L119.2745 108.9598
" />
<path d="M119.2745 108.9598
L119.2745 109.3226
" />
<path d="M119.2745 109.3226
L119.2140 109.4436
" />
<path d="M119.2140 109.4436
L119.1535 109.5041
" />
<path d="M119.1535 109.5041
L119.0326 109.5645
" />
<path d="M119.0326 109.5645
L118.8512 109.5645
" />
<path d="M119.8187 109.5645
L119.8187 108.7179
" />
<path d="M119.8187 108.9598
L119.8792 108.8388
" />
<path d="M119.8792 108.8388
L119.9397 108.7783
" />
<path d="M119.9397 108.7783
L120.0606 108.7179
" />
<path d="M120.0606 108.7179
L120.1816 108.7179
" />
<path d="M120.5445 109.5041
L120.6654 109.5645
" />
<path d="M120.6654 109.5645
L120.9073 109.5645
" />
<path d="M120.9073 109.5645
L121.0283 109.5041
" />
<path d="M121.0283 109.5041
L121.0887 109.3831
" />
<path d="M121.0887 109.3831
L121.0887 109.3226
" />
<path d="M121.0887 109.3226
L121.0283 109.2017
" />
<path d="M121.0283 109.2017
L120.9073 109.1412
" />
<path d="M120.9073 109.1412
L120.7259 109.1412
" />
<path d="M120.7259 109.1412
L120.6049 109.0807
" />
<path d="M120.6049 109.0807
L120.5445 108.9598
" />
<path d="M120.5445 108.9598
L120.5445 108.8993
" />
<path d="M120.5445 108.8993
L120.6049 108.7783
" />
<path d="M120.6049 108.7783
L120.7259 108.7179
" />
<path d="M120.7259 108.7179
L120.9073 108.7179
" />
<path d="M120.9073 108.7179
L121.0283 108.7783
" />
</g></g>
<g style="fill:none; 
stroke:#840000; stroke-width:0.1524; stroke-opacity:1; 
stroke-linecap:round; stroke-linejoin:round;">
<rect x="69.850000" y="68.580000" width="24.130000" height="20.320000" rx="0.000000" />
</g>
<g style="fill:none; 
stroke:#006464; stroke-width:0.1524; stroke-opacity:1; 
stroke-linecap:round; stroke-linejoin:round;">
<text x="92.5195" y="84.4550"
textLength="3.9527" font-size="1.6933" lengthAdjust="spacingAndGlyphs"
text-anchor="end" opacity="0" stroke-opacity="0">SGD</text>
<g class="stroked-text"><desc>SGD</desc>
<path d="M88.9117 84.3391
L89.0931 84.3995
" />
<path d="M89.0931 84.3995
L89.3955 84.3995
" />
<path d="M89.3955 84.3995
L89.5164 84.3391
" />
<path d="M89.5164 84.3391
L89.5769 84.2786
" />
<path d="M89.5769 84.2786
L89.6374 84.1576
" />
<path d="M89.6374 84.1576
L89.6374 84.0367
" />
<path d="M89.6374 84.0367
L89.5769 83.9157
" />
<path d="M89.5769 83.9157
L89.5164 83.8552
" />
<path d="M89.5164 83.8552
L89.3955 83.7948
" />
<path d="M89.3955 83.7948
L89.1536 83.7343
" />
<path d="M89.1536 83.7343
L89.0326 83.6738
" />
<path d="M89.0326 83.6738
L88.9721 83.6133
" />
<path d="M88.9721 83.6133
L88.9117 83.4924
" />
<path d="M88.9117 83.4924
L88.9117 83.3714
" />
<path d="M88.9117 83.3714
L88.9721 83.2505
" />
<path d="M88.9721 83.2505
L89.0326 83.1900
" />
<path d="M89.0326 83.1900
L89.1536 83.1295
" />
<path d="M89.1536 83.1295
L89.4559 83.1295
" />
<path d="M89.4559 83.1295
L89.6374 83.1900
" />
<path d="M90.8469 83.1900
L90.7259 83.1295
" />
<path d="M90.7259 83.1295
L90.5445 83.1295
" />
<path d="M90.5445 83.1295
L90.3631 83.1900
" />
<path d="M90.3631 83.1900
L90.2421 83.3110
" />
<path d="M90.2421 83.3110
L90.1816 83.4319
" />
<path d="M90.1816 83.4319
L90.1212 83.6738
" />
<path d="M90.1212 83.6738
L90.1212 83.8552
" />
<path d="M90.1212 83.8552
L90.1816 84.0971
" />
<path d="M90.1816 84.0971
L90.2421 84.2181
" />
<path d="M90.2421 84.2181
L90.3631 84.3391
" />
<path d="M90.3631 84.3391
L90.5445 84.3995
" />
<path d="M90.5445 84.3995
L90.6654 84.3995
" />
<path d="M90.6654 84.3995
L90.8469 84.3391
" />
<path d="M90.8469 84.3391
L90.9073 84.2786
" />
<path d="M90.9073 84.2786
L90.9073 83.8552
" />
<path d="M90.9073 83.8552
L90.6654 83.8552
" />
<path d="M91.4516 84.3995
L91.4516 83.1295
" />
<path d="M91.4516 83.1295
L91.7540 83.1295
" />
<path d="M91.7540 83.1295
L91.9354 83.1900
" />
<path d="M91.9354 83.1900
L92.0564 83.3110
" />
<path d="M92.0564 83.3110
L92.1169 83.4319
" />
<path d="M92.1169 83.4319
L92.1773 83.6738
" />
<path d="M92.1773 83.6738
L92.1773 83.8552
" />
<path d="M92.1773 83.8552
L92.1169 84.0971
" />
<path d="M92.1169 84.0971
L92.0564 84.2181
" />
<path d="M92.0564 84.2181
L91.9354 84.3391
" />
<path d="M91.9354 84.3391
L91.7540 84.3995
" />
<path d="M91.7540 84.3995
L91.4516 84.3995
" />
</g><path style="fill:none; 
stroke:#006464; stroke-width:0.1524; stroke-opacity:1; 
stroke-linecap:round; stroke-linejoin:round;fill:none"
d="M 92.7100,83.8200
93.3450,84.4550
93.9800,84.4550
93.9800,83.1850
93.3450,83.1850
Z" /> 
<text x="92.5195" y="79.3750"
textLength="3.7713" font-size="1.6933" lengthAdjust="spacingAndGlyphs"
text-anchor="end" opacity="0" stroke-opacity="0">SDA</text>
<g class="stroked-text"><desc>SDA</desc>
<path d="M89.0931 79.2591
L89.2745 79.3195
" />
<path d="M89.2745 79.3195
L89.5769 79.3195
" />
<path d="M89.5769 79.3195
L89.6978 79.2591
" />
<path d="M89.6978 79.2591
L89.7583 79.1986
" />
<path d="M89.7583 79.1986
L89.8188 79.0776
" />
<path d="M89.8188 79.0776
L89.8188 78.9567
" />
<path d="M89.8188 78.9567
L89.7583 78.8357
" />
<path d="M89.7583 78.8357
L89.6978 78.7752
" />
<path d="M89.6978 78.7752
L89.5769 78.7148
" />
<path d="M89.5769 78.7148
L89.3350 78.6543
" />
<path d="M89.3350 78.6543
L89.2140 78.5938
" />
<path d="M89.2140 78.5938
L89.1535 78.5333
" />
<path d="M89.1535 78.5333
L89.0931 78.4124
" />
<path d="M89.0931 78.4124
L89.0931 78.2914
" />
<path d="M89.0931 78.2914
L89.1535 78.1705
" />
<path d="M89.1535 78.1705
L89.2140 78.1100
" />
<path d="M89.2140 78.1100
L89.3350 78.0495
" />
<path d="M89.3350 78.0495
L89.6373 78.0495
" />
<path d="M89.6373 78.0495
L89.8188 78.1100
" />
<path d="M90.3630 79.3195
L90.3630 78.0495
" />
<path d="M90.3630 78.0495
L90.6654 78.0495
" />
<path d="M90.6654 78.0495
L90.8468 78.1100
" />
<path d="M90.8468 78.1100
L90.9678 78.2310
" />
<path d="M90.9678 78.2310
L91.0283 78.3519
" />
<path d="M91.0283 78.3519
L91.0887 78.5938
" />
<path d="M91.0887 78.5938
L91.0887 78.7752
" />
<path d="M91.0887 78.7752
L91.0283 79.0171
" />
<path d="M91.0283 79.0171
L90.9678 79.1381
" />
<path d="M90.9678 79.1381
L90.8468 79.2591
" />
<path d="M90.8468 79.2591
L90.6654 79.3195
" />
<path d="M90.6654 79.3195
L90.3630 79.3195
" />
<path d="M91.5726 78.9567
L92.1773 78.9567
" />
<path d="M91.4516 79.3195
L91.8749 78.0495
" />
<path d="M91.8749 78.0495
L92.2983 79.3195
" />
</g><path style="fill:none; 
stroke:#006464; stroke-width:0.1524; stroke-opacity:1; 
stroke-linecap:round; stroke-linejoin:round;fill:none"
d="M 92.7100,78.7400
93.3450,79.3750
93.9800,79.3750
93.9800,78.1050
93.3450,78.1050
Z" /> 
<text x="92.5195" y="74.2950"
textLength="3.9527" font-size="1.6933" lengthAdjust="spacingAndGlyphs"
text-anchor="end" opacity="0" stroke-opacity="0">SDB</text>
<g class="stroked-text"><desc>SDB</desc>
<path d="M88.9117 74.1791
L89.0931 74.2395
" />
<path d="M89.0931 74.2395
L89.3955 74.2395
" />
<path d="M89.3955 74.2395
L89.5164 74.1791
" />
<path d="M89.5164 74.1791
L89.5769 74.1186
" />
<path d="M89.5769 74.1186
L89.6374 73.9976
" />
<path d="M89.6374 73.9976
L89.6374 73.8767
" />
<path d="M89.6374 73.8767
L89.5769 73.7557
" />
<path d="M89.5769 73.7557
L89.5164 73.6952
" />
<path d="M89.5164 73.6952
L89.3955 73.6348
" />
<path d="M89.3955 73.6348
L89.1536 73.5743
" />
<path d="M89.1536 73.5743
L89.0326 73.5138
" />
<path d="M89.0326 73.5138
L88.9721 73.4533
" />
<path d="M88.9721 73.4533
L88.9117 73.3324
" />
<path d="M88.9117 73.3324
L88.9117 73.2114
" />
<path d="M88.9117 73.2114
L88.9721 73.0905
" />
<path d="M88.9721 73.0905
L89.0326 73.0300
" />
<path d="M89.0326 73.0300
L89.1536 72.9695
" />
<path d="M89.1536 72.9695
L89.4559 72.9695
" />
<path d="M89.4559 72.9695
L89.6374 73.0300
" />
<path d="M90.1816 74.2395
L90.1816 72.9695
" />
<path d="M90.1816 72.9695
L90.4840 72.9695
" />
<path d="M90.4840 72.9695
L90.6654 73.0300
" />
<path d="M90.6654 73.0300
L90.7864 73.1510
" />
<path d="M90.7864 73.1510
L90.8469 73.2719
" />
<path d="M90.8469 73.2719
L90.9073 73.5138
" />
<path d="M90.9073 73.5138
L90.9073 73.6952
" />
<path d="M90.9073 73.6952
L90.8469 73.9371
" />
<path d="M90.8469 73.9371
L90.7864 74.0581
" />
<path d="M90.7864 74.0581
L90.6654 74.1791
" />
<path d="M90.6654 74.1791
L90.4840 74.2395
" />
<path d="M90.4840 74.2395
L90.1816 74.2395
" />
<path d="M91.8750 73.5743
L92.0564 73.6348
" />
<path d="M92.0564 73.6348
L92.1169 73.6952
" />
<path d="M92.1169 73.6952
L92.1773 73.8162
" />
<path d="M92.1773 73.8162
L92.1773 73.9976
" />
<path d="M92.1773 73.9976
L92.1169 74.1186
" />
<path d="M92.1169 74.1186
L92.0564 74.1791
" />
<path d="M92.0564 74.1791
L91.9354 74.2395
" />
<path d="M91.9354 74.2395
L91.4516 74.2395
" />
<path d="M91.4516 74.2395
L91.4516 72.9695
" />
<path d="M91.4516 72.9695
L91.8750 72.9695
" />
<path d="M91.8750 72.9695
L91.9959 73.0300
" />
<path d="M91.9959 73.0300
L92.0564 73.0905
" />
<path d="M92.0564 73.0905
L92.1169 73.2114
" />
<path d="M92.1169 73.2114
L92.1169 73.3324
" />
<path d="M92.1169 73.3324
L92.0564 73.4533
" />
<path d="M92.0564 73.4533
L91.9959 73.5138
" />
<path d="M91.9959 73.5138
L91.8750 73.5743
" />
<path d="M91.8750 73.5743
L91.4516 73.5743
" />
</g><path style="fill:none; 
stroke:#006464; stroke-width:0.1524; stroke-opacity:1; 
stroke-linecap:round; stroke-linejoin:round;fill:none"
d="M 92.7100,73.6600
93.3450,74.2950
93.9800,74.2950
93.9800,73.0250
93.3450,73.0250
Z" /> 
<text x="70.6120" y="88.1380"
textLength="6.4322" font-size="1.6933" lengthAdjust="spacingAndGlyphs"
text-anchor="start" opacity="0" stroke-opacity="0">Master</text>
<g class="stroked-text"><desc>Master</desc>
<path d="M71.0145 87.9745
L71.0145 86.7045
" />
<path d="M71.0145 86.7045
L71.4379 87.6117
" />
<path d="M71.4379 87.6117
L71.8612 86.7045
" />
<path d="M71.8612 86.7045
L71.8612 87.9745
" />
<path d="M73.0102 87.9745
L73.0102 87.3093
" />
<path d="M73.0102 87.3093
L72.9497 87.1883
" />
<path d="M72.9497 87.1883
L72.8288 87.1279
" />
<path d="M72.8288 87.1279
L72.5869 87.1279
" />
<path d="M72.5869 87.1279
L72.4659 87.1883
" />
<path d="M73.0102 87.9141
L72.8893 87.9745
" />
<path d="M72.8893 87.9745
L72.5869 87.9745
" />
<path d="M72.5869 87.9745
L72.4659 87.9141
" />
<path d="M72.4659 87.9141
L72.4055 87.7931
" />
<path d="M72.4055 87.7931
L72.4055 87.6721
" />
<path d="M72.4055 87.6721
L72.4659 87.5512
" />
<path d="M72.4659 87.5512
L72.5869 87.4907
" />
<path d="M72.5869 87.4907
L72.8893 87.4907
" />
<path d="M72.8893 87.4907
L73.0102 87.4302
" />
<path d="M73.5545 87.9141
L73.6754 87.9745
" />
<path d="M73.6754 87.9745
L73.9173 87.9745
" />
<path d="M73.9173 87.9745
L74.0383 87.9141
" />
<path d="M74.0383 87.9141
L74.0987 87.7931
" />
<path d="M74.0987 87.7931
L74.0987 87.7326
" />
<path d="M74.0987 87.7326
L74.0383 87.6117
" />
<path d="M74.0383 87.6117
L73.9173 87.5512
" />
<path d="M73.9173 87.5512
L73.7359 87.5512
" />
<path d="M73.7359 87.5512
L73.6149 87.4907
" />
<path d="M73.6149 87.4907
L73.5545 87.3698
" />
<path d="M73.5545 87.3698
L73.5545 87.3093
" />
<path d="M73.5545 87.3093
L73.6149 87.1883
" />
<path d="M73.6149 87.1883
L73.7359 87.1279
" />
<path d="M73.7359 87.1279
L73.9173 87.1279
" />
<path d="M73.9173 87.1279
L74.0383 87.1883
" />
<path d="M74.4616 87.1279
L74.9454 87.1279
" />
<path d="M74.6430 86.7045
L74.6430 87.7931
" />
<path d="M74.6430 87.7931
L74.7035 87.9141
" />
<path d="M74.7035 87.9141
L74.8245 87.9745
" />
<path d="M74.8245 87.9745
L74.9454 87.9745
" />
<path d="M75.8525 87.9141
L75.7316 87.9745
" />
<path d="M75.7316 87.9745
L75.4897 87.9745
" />
<path d="M75.4897 87.9745
L75.3687 87.9141
" />
<path d="M75.3687 87.9141
L75.3083 87.7931
" />
<path d="M75.3083 87.7931
L75.3083 87.3093
" />
<path d="M75.3083 87.3093
L75.3687 87.1883
" />
<path d="M75.3687 87.1883
L75.4897 87.1279
" />
<path d="M75.4897 87.1279
L75.7316 87.1279
" />
<path d="M75.7316 87.1279
L75.8525 87.1883
" />
<path d="M75.8525 87.1883
L75.9130 87.3093
" />
<path d="M75.9130 87.3093
L75.9130 87.4302
" />
<path d="M75.9130 87.4302
L75.3083 87.5512
" />
<path d="M76.4573 87.9745
L76.4573 87.1279
" />
<path d="M76.4573 87.3698
L76.5178 87.2488
" />
<path d="M76.5178 87.2488
L76.5783 87.1883
" />
<path d="M76.5783 87.1883
L76.6992 87.1279
" />
<path d="M76.6992 87.1279
L76.8202 87.1279
" />
</g></g>
<g style="fill:none; 
stroke:#840000; stroke-width:0.1524; stroke-opacity:1; 
stroke-linecap:round; stroke-linejoin:round;">
<rect x="209.550000" y="93.980000" width="27.940000" height="16.510000" rx="0.000000" />
</g>
<g style="fill:none; 
stroke:#006464; stroke-width:0.1524; stroke-opacity:1; 
stroke-linecap:round; stroke-linejoin:round;">
<g transform="rotate(-90.000000 215.9000 95.4405)">
<text x="215.9000" y="96.0755"
textLength="3.9527" font-size="1.6933" lengthAdjust="spacingAndGlyphs"
text-anchor="end" opacity="0" stroke-opacity="0">SGD</text>
</g>
<g class="stroked-text"><desc>SGD</desc>
<path d="M216.4191 99.0482
L216.4795 98.8668
" />
<path d="M216.4795 98.8668
L216.4795 98.5644
" />
<path d="M216.4795 98.5644
L216.4191 98.4435
" />
<path d="M216.4191 98.4435
L216.3586 98.3830
" />
<path d="M216.3586 98.3830
L216.2376 98.3225
" />
<path d="M216.2376 98.3225
L216.1167 98.3225
" />
<path d="M216.1167 98.3225
L215.9957 98.3830
" />
<path d="M215.9957 98.3830
L215.9352 98.4435
" />
<path d="M215.9352 98.4435
L215.8748 98.5644
" />
<path d="M215.8748 98.5644
L215.8143 98.8063
" />
<path d="M215.8143 98.8063
L215.7538 98.9273
" />
<path d="M215.7538 98.9273
L215.6933 98.9878
" />
<path d="M215.6933 98.9878
L215.5724 99.0482
" />
<path d="M215.5724 99.0482
L215.4514 99.0482
" />
<path d="M215.4514 99.0482
L215.3305 98.9878
" />
<path d="M215.3305 98.9878
L215.2700 98.9273
" />
<path d="M215.2700 98.9273
L215.2095 98.8063
" />
<path d="M215.2095 98.8063
L215.2095 98.5040
" />
<path d="M215.2095 98.5040
L215.2700 98.3225
" />
<path d="M215.2700 97.1130
L215.2095 97.2340
" />
<path d="M215.2095 97.2340
L215.2095 97.4154
" />
<path d="M215.2095 97.4154
L215.2700 97.5968
" />
<path d="M215.2700 97.5968
L215.3910 97.7178
" />
<path d="M215.3910 97.7178
L215.5119 97.7783
" />
<path d="M215.5119 97.7783
L215.7538 97.8387
" />
<path d="M215.7538 97.8387
L215.9352 97.8387
" />
<path d="M215.9352 97.8387
L216.1771 97.7783
" />
<path d="M216.1771 97.7783
L216.2981 97.7178
" />
<path d="M216.2981 97.7178
L216.4191 97.5968
" />
<path d="M216.4191 97.5968
L216.4795 97.4154
" />
<path d="M216.4795 97.4154
L216.4795 97.2945
" />
<path d="M216.4795 97.2945
L216.4191 97.1130
" />
<path d="M216.4191 97.1130
L216.3586 97.0526
" />
<path d="M216.3586 97.0526
L215.9352 97.0526
" />
<path d="M215.9352 97.0526
L215.9352 97.2945
" />
<path d="M216.4795 96.5083
L215.2095 96.5083
" />
<path d="M215.2095 96.5083
L215.2095 96.2059
" />
<path d="M215.2095 96.2059
L215.2700 96.0245
" />
<path d="M215.2700 96.0245
L215.3910 95.9035
" />
<path d="M215.3910 95.9035
L215.5119 95.8430
" />
<path d="M215.5119 95.8430
L215.7538 95.7826
" />
<path d="M215.7538 95.7826
L215.9352 95.7826
" />
<path d="M215.9352 95.7826
L216.1771 95.8430
" />
<path d="M216.1771 95.8430
L216.2981 95.9035
" />
<path d="M216.2981 95.9035
L216.4191 96.0245
" />
<path d="M216.4191 96.0245
L216.4795 96.2059
" />
<path d="M216.4795 96.2059
L216.4795 96.5083
" />
</g><path style="fill:none; 
stroke:#006464; stroke-width:0.1524; stroke-opacity:1; 
stroke-linecap:round; stroke-linejoin:round;fill:none"
d="M 215.9000,95.2500
216.5350,94.6150
216.5350,93.9800
215.2650,93.9800
215.2650,94.6150
Z" /> 
<g transform="rotate(-90.000000 223.5200 95.4405)">
<text x="223.5200" y="96.0755"
textLength="3.7713" font-size="1.6933" lengthAdjust="spacingAndGlyphs"
text-anchor="end" opacity="0" stroke-opacity="0">SDA</text>
</g>
<g class="stroked-text"><desc>SDA</desc>
<path d="M224.0391 98.8668
L224.0995 98.6854
" />
<path d="M224.0995 98.6854
L224.0995 98.3830
" />
<path d="M224.0995 98.3830
L224.0391 98.2621
" />
<path d="M224.0391 98.2621
L223.9786 98.2016
" />
<path d="M223.9786 98.2016
L223.8576 98.1411
" />
<path d="M223.8576 98.1411
L223.7367 98.1411
" />
<path d="M223.7367 98.1411
L223.6157 98.2016
" />
<path d="M223.6157 98.2016
L223.5552 98.2621
" />
<path d="M223.5552 98.2621
L223.4948 98.3830
" />
<path d="M223.4948 98.3830
L223.4343 98.6249
" />
<path d="M223.4343 98.6249
L223.3738 98.7459
" />
<path d="M223.3738 98.7459
L223.3133 98.8064
" />
<path d="M223.3133 98.8064
L223.1924 98.8668
" />
<path d="M223.1924 98.8668
L223.0714 98.8668
" />
<path d="M223.0714 98.8668
L222.9505 98.8064
" />
<path d="M222.9505 98.8064
L222.8900 98.7459
" />
<path d="M222.8900 98.7459
L222.8295 98.6249
" />
<path d="M222.8295 98.6249
L222.8295 98.3226
" />
<path d="M222.8295 98.3226
L222.8900 98.1411
" />
<path d="M224.0995 97.5969
L222.8295 97.5969
" />
<path d="M222.8295 97.5969
L222.8295 97.2945
" />
<path d="M222.8295 97.2945
L222.8900 97.1131
" />
<path d="M222.8900 97.1131
L223.0110 96.9921
" />
<path d="M223.0110 96.9921
L223.1319 96.9316
" />
<path d="M223.1319 96.9316
L223.3738 96.8712
" />
<path d="M223.3738 96.8712
L223.5552 96.8712
" />
<path d="M223.5552 96.8712
L223.7971 96.9316
" />
<path d="M223.7971 96.9316
L223.9181 96.9921
" />
<path d="M223.9181 96.9921
L224.0391 97.1131
" />
<path d="M224.0391 97.1131
L224.0995 97.2945
" />
<path d="M224.0995 97.2945
L224.0995 97.5969
" />
<path d="M223.7367 96.3873
L223.7367 95.7826
" />
<path d="M224.0995 96.5083
L222.8295 96.0850
" />
<path d="M222.8295 96.0850
L224.0995 95.6616
" />
</g><path style="fill:none; 
stroke:#006464; stroke-width:0.1524; stroke-opacity:1; 
stroke-linecap:round; stroke-linejoin:round;fill:none"
d="M 223.5200,95.2500
224.1550,94.6150
224.1550,93.9800
222.8850,93.9800
222.8850,94.6150
Z" /> 
<g transform="rotate(-90.000000 231.1400 95.4405)">
<text x="231.1400" y="96.0755"
textLength="3.9527" font-size="1.6933" lengthAdjust="spacingAndGlyphs"
text-anchor="end" opacity="0" stroke-opacity="0">SDB</text>
</g>
<g class="stroked-text"><desc>SDB</desc>
<path d="M231.6591 99.0482
L231.7195 98.8668
" />
<path d="M231.7195 98.8668
L231.7195 98.5644
" />
<path d="M231.7195 98.5644
L231.6591 98.4435
" />
<path d="M231.6591 98.4435
L231.5986 98.3830
" />
<path d="M231.5986 98.3830
L231.4776 98.3225
" />
<path d="M231.4776 98.3225
L231.3567 98.3225
" />
<path d="M231.3567 98.3225
L231.2357 98.3830
" />
<path d="M231.2357 98.3830
L231.1752 98.4435
" />
<path d="M231.1752 98.4435
L231.1148 98.5644
" />
<path d="M231.1148 98.5644
L231.0543 98.8063
" />
<path d="M231.0543 98.8063
L230.9938 98.9273
" />
<path d="M230.9938 98.9273
L230.9333 98.9878
" />
<path d="M230.9333 98.9878
L230.8124 99.0482
" />
<path d="M230.8124 99.0482
L230.6914 99.0482
" />
<path d="M230.6914 99.0482
L230.5705 98.9878
" />
<path d="M230.5705 98.9878
L230.5100 98.9273
" />
<path d="M230.5100 98.9273
L230.4495 98.8063
" />
<path d="M230.4495 98.8063
L230.4495 98.5040
" />
<path d="M230.4495 98.5040
L230.5100 98.3225
" />
<path d="M231.7195 97.7783
L230.4495 97.7783
" />
<path d="M230.4495 97.7783
L230.4495 97.4759
" />
<path d="M230.4495 97.4759
L230.5100 97.2945
" />
<path d="M230.5100 97.2945
L230.6310 97.1735
" />
<path d="M230.6310 97.1735
L230.7519 97.1130
" />
<path d="M230.7519 97.1130
L230.9938 97.0526
" />
<path d="M230.9938 97.0526
L231.1752 97.0526
" />
<path d="M231.1752 97.0526
L231.4171 97.1130
" />
<path d="M231.4171 97.1130
L231.5381 97.1735
" />
<path d="M231.5381 97.1735
L231.6591 97.2945
" />
<path d="M231.6591 97.2945
L231.7195 97.4759
" />
<path d="M231.7195 97.4759
L231.7195 97.7783
" />
<path d="M231.0543 96.0849
L231.1148 95.9035
" />
<path d="M231.1148 95.9035
L231.1752 95.8430
" />
<path d="M231.1752 95.8430
L231.2962 95.7826
" />
<path d="M231.2962 95.7826
L231.4776 95.7826
" />
<path d="M231.4776 95.7826
L231.5986 95.8430
" />
<path d="M231.5986 95.8430
L231.6591 95.9035
" />
<path d="M231.6591 95.9035
L231.7195 96.0245
" />
<path d="M231.7195 96.0245
L231.7195 96.5083
" />
<path d="M231.7195 96.5083
L230.4495 96.5083
" />
<path d="M230.4495 96.5083
L230.4495 96.0849
" />
<path d="M230.4495 96.0849
L230.5100 95.9640
" />
<path d="M230.5100 95.9640
L230.5705 95.9035
" />
<path d="M230.5705 95.9035
L230.6914 95.8430
" />
<path d="M230.6914 95.8430
L230.8124 95.8430
" />
<path d="M230.8124 95.8430
L230.9333 95.9035
" />
<path d="M230.9333 95.9035
L230.9938 95.9640
" />
<path d="M230.9938 95.9640
L231.0543 96.0849
" />
<path d="M231.0543 96.0849
L231.0543 96.5083
" />
</g><path style="fill:none; 
stroke:#006464; stroke-width:0.1524; stroke-opacity:1; 
stroke-linecap:round; stroke-linejoin:round;fill:none"
d="M 231.1400,95.2500
231.7750,94.6150
231.7750,93.9800
230.5050,93.9800
230.5050,94.6150
Z" /> 
<text x="210.5660" y="109.4740"
textLength="8.8512" font-size="1.6933" lengthAdjust="spacingAndGlyphs"
text-anchor="start" opacity="0" stroke-opacity="0">Sensors2</text>
<g class="stroked-text"><desc>Sensors2</desc>
<path d="M210.9081 109.2501
L211.0895 109.3105
" />
<path d="M211.0895 109.3105
L211.3919 109.3105
" />
<path d="M211.3919 109.3105
L211.5128 109.2501
" />
<path d="M211.5128 109.2501
L211.5733 109.1896
" />
<path d="M211.5733 109.1896
L211.6338 109.0686
" />
<path d="M211.6338 109.0686
L211.6338 108.9477
" />
<path d="M211.6338 108.9477
L211.5733 108.8267
" />
<path d="M211.5733 108.8267
L211.5128 108.7662
" />
<path d="M211.5128 108.7662
L211.3919 108.7058
" />
<path d="M211.3919 108.7058
L211.1500 108.6453
" />
<path d="M211.1500 108.6453
L211.0290 108.5848
" />
<path d="M211.0290 108.5848
L210.9685 108.5243
" />
<path d="M210.9685 108.5243
L210.9081 108.4034
" />
<path d="M210.9081 108.4034
L210.9081 108.2824
" />
<path d="M210.9081 108.2824
L210.9685 108.1615
" />
<path d="M210.9685 108.1615
L211.0290 108.1010
" />
<path d="M211.0290 108.1010
L211.1500 108.0405
" />
<path d="M211.1500 108.0405
L211.4523 108.0405
" />
<path d="M211.4523 108.0405
L211.6338 108.1010
" />
<path d="M212.6618 109.2501
L212.5409 109.3105
" />
<path d="M212.5409 109.3105
L212.2990 109.3105
" />
<path d="M212.2990 109.3105
L212.1780 109.2501
" />
<path d="M212.1780 109.2501
L212.1176 109.1291
" />
<path d="M212.1176 109.1291
L212.1176 108.6453
" />
<path d="M212.1176 108.6453
L212.1780 108.5243
" />
<path d="M212.1780 108.5243
L212.2990 108.4639
" />
<path d="M212.2990 108.4639
L212.5409 108.4639
" />
<path d="M212.5409 108.4639
L212.6618 108.5243
" />
<path d="M212.6618 108.5243
L212.7223 108.6453
" />
<path d="M212.7223 108.6453
L212.7223 108.7662
" />
<path d="M212.7223 108.7662
L212.1176 108.8872
" />
<path d="M213.2666 108.4639
L213.2666 109.3105
" />
<path d="M213.2666 108.5848
L213.3271 108.5243
" />
<path d="M213.3271 108.5243
L213.4481 108.4639
" />
<path d="M213.4481 108.4639
L213.6295 108.4639
" />
<path d="M213.6295 108.4639
L213.7504 108.5243
" />
<path d="M213.7504 108.5243
L213.8109 108.6453
" />
<path d="M213.8109 108.6453
L213.8109 109.3105
" />
<path d="M214.3552 109.2501
L214.4761 109.3105
" />
<path d="M214.4761 109.3105
L214.7180 109.3105
" />
<path d="M214.7180 109.3105
L214.8390 109.2501
" />
<path d="M214.8390 109.2501
L214.8994 109.1291
" />
<path d="M214.8994 109.1291
L214.8994 109.0686
" />
<path d="M214.8994 109.0686
L214.8390 108.9477
" />
<path d="M214.8390 108.9477
L214.7180 108.8872
" />
<path d="M214.7180 108.8872
L214.5366 108.8872
" />
<path d="M214.5366 108.8872
L214.4156 108.8267
" />
<path d="M214.4156 108.8267
L214.3552 108.7058
" />
<path d="M214.3552 108.7058
L214.3552 108.6453
" />
<path d="M214.3552 108.6453
L214.4156 108.5243
" />
<path d="M214.4156 108.5243
L214.5366 108.4639
" />
<path d="M214.5366 108.4639
L214.7180 108.4639
" />
<path d="M214.7180 108.4639
L214.8390 108.5243
" />
<path d="M215.6252 109.3105
L215.5042 109.2501
" />
<path d="M215.5042 109.2501
L215.4437 109.1896
" />
<path d="M215.4437 109.1896
L215.3833 109.0686
" />
<path d="M215.3833 109.0686
L215.3833 108.7058
" />
<path d="M215.3833 108.7058
L215.4437 108.5848
" />
<path d="M215.4437 108.5848
L215.5042 108.5243
" />
<path d="M215.5042 108.5243
L215.6252 108.4639
" />
<path d="M215.6252 108.4639
L215.8066 108.4639
" />
<path d="M215.8066 108.4639
L215.9275 108.5243
" />
<path d="M215.9275 108.5243
L215.9880 108.5848
" />
<path d="M215.9880 108.5848
L216.0485 108.7058
" />
<path d="M216.0485 108.7058
L216.0485 109.0686
" />
<path d="M216.0485 109.0686
L215.9880 109.1896
" />
<path d="M215.9880 109.1896
L215.9275 109.2501
" />
<path d="M215.9275 109.2501
L215.8066 109.3105
" />
<path d="M215.8066 109.3105
L215.6252 109.3105
" />
<path d="M216.5927 109.3105
L216.5927 108.4639
" />
<path d="M216.5927 108.7058
L216.6532 108.5848
" />
<path d="M216.6532 108.5848
L216.7137 108.5243
" />
<path d="M216.7137 108.5243
L216.8346 108.4639
" />
<path d="M216.8346 108.4639
L216.9556 108.4639
" />
<path d="M217.3185 109.2501
L217.4394 109.3105
" />
<path d="M217.4394 109.3105
L217.6813 109.3105
" />
<path d="M217.6813 109.3105
L217.8023 109.2501
" />
<path d="M217.8023 109.2501
L217.8627 109.1291
" />
<path d="M217.8627 109.1291
L217.8627 109.0686
" />
<path d="M217.8627 109.0686
L217.8023 108.9477
" />
<path d="M217.8023 108.9477
L217.6813 108.8872
" />
<path d="M217.6813 108.8872
L217.4999 108.8872
" />
<path d="M217.4999 108.8872
L217.3789 108.8267
" />
<path d="M217.3789 108.8267
L217.3185 108.7058
" />
<path d="M217.3185 108.7058
L217.3185 108.6453
" />
<path d="M217.3185 108.6453
L217.3789 108.5243
" />
<path d="M217.3789 108.5243
L217.4999 108.4639
" />
<path d="M217.4999 108.4639
L217.6813 108.4639
" />
<path d="M217.6813 108.4639
L217.8023 108.5243
" />
<path d="M218.3466 108.1615
L218.4070 108.1010
" />
<path d="M218.4070 108.1010
L218.5280 108.0405
" />
<path d="M218.5280 108.0405
L218.8304 108.0405
" />
<path d="M218.8304 108.0405
L218.9513 108.1010
" />
<path d="M218.9513 108.1010
L219.0118 108.1615
" />
<path d="M219.0118 108.1615
L219.0723 108.2824
" />
<path d="M219.0723 108.2824
L219.0723 108.4034
" />
<path d="M219.0723 108.4034
L219.0118 108.5848
" />
<path d="M219.0118 108.5848
L218.2861 109.3105
" />
<path d="M218.2861 109.3105
L219.0723 109.3105
" />
</g></g>
<g style="fill:none; 
stroke:#009600; stroke-width:0.1524; stroke-opacity:1; 
stroke-linecap:round; stroke-linejoin:round;">
<path d="M127.0000 78.7400
L176.5300 78.7400
" />
<path d="M184.1500 73.6600
L134.6200 73.6600
" />
<path d="M134.6200 73.6600
L134.6200 93.9800
" />
<path d="M168.9100 83.8200
L168.9100 93.9800
" />
<path d="M119.3800 83.8200
L168.9100 83.8200
" />
<path d="M127.0000 78.7400
L127.0000 93.9800
" />
<path d="M134.6200 73.6600
L93.9800 73.6600
" />
<path d="M93.9800 83.8200
L119.3800 83.8200
" />
<path d="M119.3800 83.8200
L119.3800 93.9800
" />
<path d="M93.9800 78.7400
L127.0000 78.7400
" />
<path d="M231.1400 73.6600
L184.1500 73.6600
" />
<path d="M168.9100 83.8200
L215.9000 83.8200
" />
<path d="M176.5300 78.7400
L176.5300 93.9800
" />
<path d="M176.5300 78.7400
L223.5200 78.7400
" />
<path d="M184.1500 73.6600
L184.1500 93.9800
" />
<path d="M223.5200 78.7400
L223.5200 93.9800
" />
<path d="M215.9000 83.8200
L215.9000 93.9800
" />
<path d="M231.1400 93.9800
L231.1400 73.6600
" />
</g>
<g style="fill:#009600; fill-opacity:1.0000; 
stroke:#009600; stroke-width:0.1524; stroke-opacity:1; 
stroke-linecap:round; stroke-linejoin:round;">
<circle cx="168.9100" cy="83.8200" r="0.4572" /> 
<circle cx="184.1500" cy="73.6600" r="0.4572" /> 
<circle cx="176.5300" cy="78.7400" r="0.4572" /> 
<circle cx="134.6200" cy="73.6600" r="0.4572" /> 
<circle cx="127.0000" cy="78.7400" r="0.4572" /> 
<circle cx="119.3800" cy="83.8200" r="0.4572" /> 
</g> 
</svg>
